<?xml version="1.0" encoding="utf-8"?>
<!-- Generator: Adobe Illustrator 19.2.1, SVG Export Plug-In . SVG Version: 6.00 Build 0)  -->
<svg version="1.1" id="Layer_1" xmlns="http://www.w3.org/2000/svg" xmlns:xlink="http://www.w3.org/1999/xlink" x="0px" y="0px"
	 viewBox="0 0 165 37.1" enable-background="new 0 0 165 37.1" xml:space="preserve">
<title>Audioblocks_Logo</title>
<path fill="#A6CE39" d="M6,18.3H3.8V18c-0.3-9.7,7.3-17.8,17-18s17.8,7.3,18,17v0.3h-2.2V17C36.3,8.6,29.3,1.9,20.8,2.2
	S5.7,9.6,6,18V18.3L6,18.3z"/>
<path fill="#A6CE39" d="M36.3,11.4c3.4,0.1,6,2.9,5.9,6.2c-0.1,3.2-2.7,5.8-5.9,5.9h-0.1L36.3,11.4L36.3,11.4z"/>
<path fill="#A6CE39" d="M36.3,23.6L36.3,23.6l-0.1-12.2h0.1c3.4,0,6.1,2.7,6.1,6.1C42.4,20.9,39.6,23.6,36.3,23.6z M36.2,23.5
	L36.2,23.5c3.4,0,6.1-2.7,6.1-6s-2.7-6-6-6h-0.1V23.5z"/>
<path fill="#A6CE39" d="M6.3,11.4c-3.3,0-6.1,2.6-6.2,6s2.6,6.1,5.9,6.2c0.1,0,0.2,0,0.3,0h0.1L6.3,11.4L6.3,11.4z"/>
<path fill="#A6CE39" d="M6.5,23.6H6.3c-3.4,0-6.1-2.7-6.1-6.1s2.7-6.1,6.1-6.1h0.1L6.5,23.6L6.5,23.6z M6.3,11.5c-3.3,0-6,2.7-6,6
	s2.7,6,6,6h0.1L6.3,11.5L6.3,11.5z"/>
<path fill="#00A4E2" d="M12.1,10h18.3c2.4,0,4.4,2,4.4,4.4v18.3c0,2.4-2,4.4-4.4,4.4H12.1c-2.4,0-4.4-2-4.4-4.4V14.4
	C7.7,12,9.7,10,12.1,10z"/>
<path fill="#F4F4F4" d="M58.7,28.5c0,0.1,0,0.2-0.1,0.3c-0.1,0.1-0.2,0.1-0.4,0.1s-0.5,0-0.7,0c-0.3,0-0.5,0-0.8,0
	c-0.1,0-0.2-0.1-0.3-0.1c-0.1-0.1-0.1-0.2-0.1-0.3v-0.8c-0.4,0.4-0.9,0.8-1.5,1.1c-0.6,0.3-1.2,0.4-1.8,0.4c-0.5,0-1-0.1-1.5-0.2
	c-0.4-0.1-0.8-0.3-1.2-0.6c-0.3-0.3-0.6-0.6-0.8-1c-0.2-0.5-0.3-1-0.3-1.5s0.1-1.1,0.4-1.6c0.2-0.5,0.6-0.8,1.1-1.1
	c0.5-0.3,1.1-0.5,1.7-0.6c0.8-0.1,1.6-0.2,2.4-0.2h1v-0.6c0-0.3,0-0.6-0.1-0.9c-0.1-0.2-0.2-0.4-0.3-0.6c-0.2-0.2-0.4-0.3-0.6-0.4
	c-0.3-0.1-0.6-0.1-0.9-0.1c-0.4,0-0.9,0-1.3,0.2c-0.3,0.1-0.7,0.2-1,0.4c-0.3,0.1-0.5,0.3-0.7,0.4c-0.1,0.1-0.3,0.1-0.5,0.2
	c-0.1,0-0.2,0-0.2-0.1c-0.1-0.1-0.1-0.1-0.2-0.2c0-0.1-0.1-0.2-0.1-0.4c0-0.2,0-0.3,0-0.5s0-0.4,0.1-0.6c0-0.1,0.1-0.3,0.2-0.4
	c0.2-0.2,0.4-0.3,0.6-0.4c0.3-0.1,0.6-0.3,1-0.4s0.8-0.2,1.2-0.3c1.1-0.2,2.3-0.1,3.4,0.1c0.5,0.1,1,0.4,1.4,0.7
	c0.4,0.3,0.7,0.8,0.8,1.3c0.2,0.6,0.3,1.2,0.3,1.8L58.7,28.5L58.7,28.5z M55.8,24.1h-1.1c-0.4,0-0.8,0-1.2,0.1
	c-0.3,0.1-0.6,0.2-0.8,0.3c-0.2,0.1-0.4,0.3-0.5,0.5s-0.2,0.4-0.1,0.7c0,0.4,0.1,0.8,0.4,1c0.3,0.3,0.7,0.4,1.1,0.4
	c0.4,0,0.8-0.1,1.1-0.3c0.4-0.3,0.7-0.6,1-0.9L55.8,24.1L55.8,24.1z"/>
<path fill="#F4F4F4" d="M71.4,28.5c0,0.1,0,0.1-0.1,0.2s-0.1,0.1-0.2,0.1s-0.2,0.1-0.4,0.1c-0.2,0-0.4,0-0.6,0s-0.4,0-0.6,0
	c-0.1,0-0.2,0-0.4-0.1c-0.1,0-0.1-0.1-0.2-0.1c0-0.1-0.1-0.1-0.1-0.2v-1.2c-0.5,0.6-1.1,1-1.7,1.4c-0.6,0.3-1.2,0.5-1.8,0.5
	c-0.6,0-1.2-0.1-1.8-0.4c-0.5-0.2-0.9-0.5-1.2-1c-0.3-0.4-0.5-0.9-0.6-1.4c-0.1-0.7-0.2-1.3-0.2-2v-6.3c0-0.1,0-0.1,0.1-0.2
	s0.1-0.1,0.2-0.1c0.1,0,0.3-0.1,0.5-0.1s0.4,0,0.7,0s0.5,0,0.7,0s0.3,0,0.4,0.1c0.1,0,0.2,0.1,0.2,0.1c0,0.1,0.1,0.1,0.1,0.2V24
	c0,0.4,0,0.8,0.1,1.2c0.1,0.3,0.2,0.5,0.3,0.7c0.1,0.2,0.3,0.4,0.5,0.5s0.5,0.2,0.8,0.2c0.4,0,0.8-0.2,1.1-0.4
	c0.4-0.3,0.9-0.7,1.2-1.2v-6.9c0-0.1,0-0.1,0.1-0.2s0.1-0.1,0.2-0.1s0.3-0.1,0.4-0.1c0.2,0,0.4,0,0.7,0c0.3,0,0.5,0,0.7,0
	s0.3,0,0.4,0.1c0.1,0,0.2,0.1,0.2,0.1c0,0.1,0.1,0.1,0.1,0.2L71.4,28.5L71.4,28.5z"/>
<path fill="#F4F4F4" d="M84.1,28.5c0,0.1,0,0.2-0.1,0.2c0,0.1-0.1,0.1-0.2,0.1s-0.2,0.1-0.4,0.1c-0.2,0-0.4,0-0.6,0s-0.4,0-0.6,0
	c-0.1,0-0.2,0-0.4-0.1c-0.1,0-0.2-0.1-0.2-0.1c0-0.1-0.1-0.1-0.1-0.2v-1.2c-0.5,0.5-1.1,1-1.7,1.3c-1.2,0.6-2.7,0.6-3.9,0
	c-0.5-0.3-1-0.7-1.3-1.2c-0.4-0.6-0.6-1.2-0.7-1.8c-0.2-0.7-0.2-1.5-0.2-2.2c0-0.8,0.1-1.7,0.3-2.5c0.2-0.7,0.5-1.3,0.9-1.9
	c0.4-0.5,0.9-0.9,1.4-1.2c0.6-0.3,1.3-0.4,1.9-0.4c0.5,0,1.1,0.1,1.6,0.4s1,0.6,1.4,1v-5.6c0-0.1,0-0.1,0.1-0.2
	c0.1-0.1,0.1-0.1,0.2-0.2c0.1,0,0.3-0.1,0.4-0.1c0.5,0,0.9,0,1.4,0c0.2,0,0.3,0,0.4,0.1c0.1,0,0.2,0.1,0.2,0.2
	c0,0.1,0.1,0.1,0.1,0.2L84.1,28.5L84.1,28.5z M81.2,21.5c-0.3-0.5-0.8-0.9-1.2-1.2c-0.3-0.3-0.8-0.4-1.2-0.4c-0.3,0-0.7,0.1-1,0.3
	c-0.3,0.2-0.5,0.5-0.7,0.8s-0.3,0.7-0.4,1.1s-0.1,0.8-0.1,1.2c0,0.4,0,0.8,0.1,1.3c0.1,0.4,0.2,0.8,0.3,1.1c0.1,0.3,0.4,0.6,0.6,0.8
	c0.3,0.2,0.6,0.3,1,0.3c0.2,0,0.4,0,0.6-0.1s0.4-0.2,0.6-0.3c0.2-0.2,0.4-0.3,0.6-0.5s0.4-0.5,0.7-0.8L81.2,21.5L81.2,21.5z"/>
<path fill="#F4F4F4" d="M90.1,14.6c0,0.4-0.1,0.9-0.4,1.2c-0.2,0.2-0.7,0.3-1.3,0.3c-0.6,0-1.1-0.1-1.3-0.3
	c-0.3-0.3-0.4-0.8-0.3-1.2c0-0.4,0.1-0.9,0.4-1.2c0.2-0.2,0.7-0.3,1.3-0.3c0.7,0,1.1,0.1,1.3,0.3C90,13.7,90.2,14.2,90.1,14.6z
	 M89.9,28.5c0,0.1,0,0.1-0.1,0.2s-0.1,0.1-0.2,0.1s-0.3,0.1-0.4,0.1c-0.2,0-0.4,0-0.7,0c-0.3,0-0.5,0-0.7,0s-0.3,0-0.4-0.1
	c-0.1,0-0.2-0.1-0.2-0.1c0-0.1-0.1-0.1-0.1-0.2V18.1c0-0.1,0-0.1,0.1-0.2s0.1-0.1,0.2-0.1s0.3-0.1,0.4-0.1c0.5,0,0.9,0,1.4,0
	c0.2,0,0.3,0,0.4,0.1c0.1,0,0.2,0.1,0.2,0.1c0,0.1,0.1,0.1,0.1,0.2L89.9,28.5L89.9,28.5z"/>
<path fill="#F4F4F4" d="M103.2,23.2c0,0.8-0.1,1.6-0.4,2.4c-0.2,0.7-0.6,1.3-1.1,1.9c-0.5,0.5-1.1,1-1.8,1.2
	c-0.8,0.3-1.6,0.4-2.5,0.4c-0.8,0-1.6-0.1-2.4-0.4c-0.6-0.2-1.2-0.6-1.7-1.1s-0.8-1.1-1-1.8C92.1,25,92,24.2,92,23.4
	s0.1-1.6,0.4-2.4c0.2-0.7,0.6-1.3,1.1-1.9c0.5-0.5,1.1-0.9,1.8-1.2c0.8-0.3,1.6-0.4,2.5-0.4c0.8,0,1.6,0.1,2.4,0.4
	c0.6,0.2,1.2,0.6,1.7,1.1s0.8,1.1,1,1.8C103.1,21.5,103.2,22.3,103.2,23.2z M100.2,23.3c0-0.5,0-0.9-0.1-1.4
	c-0.1-0.4-0.2-0.8-0.4-1.1c-0.2-0.3-0.5-0.6-0.8-0.7c-0.4-0.2-0.8-0.3-1.2-0.3c-0.4,0-0.8,0.1-1.1,0.2c-0.3,0.2-0.6,0.4-0.8,0.7
	c-0.2,0.3-0.4,0.7-0.5,1.1c-0.1,0.5-0.2,1-0.2,1.5s0,0.9,0.1,1.4c0.1,0.4,0.2,0.8,0.4,1.1c0.2,0.3,0.5,0.6,0.8,0.7
	c0.4,0.2,0.8,0.3,1.2,0.3c0.4,0,0.8-0.1,1.1-0.2c0.3-0.2,0.6-0.4,0.8-0.7c0.2-0.3,0.4-0.7,0.5-1.1C100.2,24.3,100.2,23.8,100.2,23.3
	z"/>
<path fill="#F4F4F4" d="M115.9,23.1c0,0.8-0.1,1.7-0.3,2.5c-0.2,0.7-0.5,1.3-0.9,1.9c-0.4,0.5-0.8,0.9-1.4,1.2
	c-0.6,0.3-1.2,0.4-1.9,0.4c-0.3,0-0.7,0-1-0.1s-0.6-0.2-0.9-0.3c-0.3-0.2-0.6-0.3-0.8-0.6c-0.3-0.2-0.6-0.5-0.8-0.8v1.1
	c0,0.1,0,0.2-0.1,0.2c-0.1,0.1-0.1,0.1-0.2,0.1s-0.3,0.1-0.4,0.1c-0.2,0-0.4,0-0.6,0s-0.4,0-0.6,0c-0.1,0-0.2,0-0.4-0.1
	c-0.1,0-0.2-0.1-0.2-0.1c0-0.1-0.1-0.1-0.1-0.2V13.2c0-0.1,0-0.1,0.1-0.2c0.1-0.1,0.1-0.1,0.2-0.2c0.1,0,0.3-0.1,0.4-0.1
	c0.5,0,0.9,0,1.4,0c0.2,0,0.3,0,0.4,0.1c0.1,0,0.2,0.1,0.2,0.2c0,0.1,0.1,0.1,0.1,0.2v5.7c0.2-0.2,0.5-0.5,0.8-0.7
	c0.2-0.2,0.5-0.3,0.8-0.5c0.3-0.1,0.5-0.2,0.8-0.3c0.3-0.1,0.6-0.1,0.9-0.1c0.7,0,1.4,0.1,1.9,0.5c0.5,0.3,1,0.7,1.3,1.2
	c0.4,0.6,0.6,1.2,0.7,1.8C115.8,21.7,115.9,22.4,115.9,23.1z M112.9,23.4c0-0.4,0-0.9-0.1-1.3s-0.2-0.8-0.3-1.1
	c-0.1-0.3-0.4-0.6-0.6-0.8c-0.3-0.2-0.6-0.3-1-0.3c-0.2,0-0.4,0-0.6,0.1s-0.4,0.2-0.6,0.3c-0.2,0.2-0.4,0.3-0.6,0.5
	s-0.5,0.5-0.7,0.8V25c0.3,0.5,0.7,0.9,1.2,1.2c0.3,0.3,0.8,0.4,1.2,0.4c0.3,0,0.7-0.1,1-0.3c0.3-0.2,0.5-0.5,0.7-0.8
	s0.3-0.7,0.4-1.1C112.8,24.1,112.9,23.8,112.9,23.4L112.9,23.4z"/>
<path fill="#F4F4F4" d="M121.1,28.5c0,0.1,0,0.1-0.1,0.2s-0.1,0.1-0.2,0.1s-0.3,0.1-0.4,0.1c-0.2,0-0.4,0-0.7,0c-0.3,0-0.5,0-0.7,0
	s-0.3,0-0.4-0.1c-0.1,0-0.2-0.1-0.2-0.1c0-0.1-0.1-0.1-0.1-0.2V13.2c0-0.1,0-0.1,0.1-0.2c0.1-0.1,0.1-0.1,0.2-0.2
	c0.1,0,0.3-0.1,0.4-0.1c0.5,0,0.9,0,1.4,0c0.2,0,0.3,0,0.4,0.1c0.1,0,0.2,0.1,0.2,0.2c0,0.1,0.1,0.1,0.1,0.2L121.1,28.5L121.1,28.5z
	"/>
<path fill="#F4F4F4" d="M134.5,23.2c0,0.8-0.1,1.6-0.4,2.4c-0.2,0.7-0.6,1.3-1.1,1.9c-0.5,0.5-1.1,1-1.8,1.2
	c-0.8,0.3-1.6,0.4-2.5,0.4c-0.8,0-1.6-0.1-2.4-0.4c-0.6-0.2-1.2-0.6-1.7-1.1s-0.8-1.1-1-1.8c-0.2-0.8-0.3-1.6-0.3-2.4
	s0.1-1.6,0.4-2.4c0.2-0.7,0.6-1.3,1.1-1.9c0.5-0.5,1.1-0.9,1.8-1.2c0.8-0.3,1.6-0.4,2.5-0.4c0.8,0,1.6,0.1,2.4,0.4
	c0.6,0.2,1.2,0.6,1.7,1.1s0.8,1.1,1,1.8S134.5,22.4,134.5,23.2z M131.5,23.3c0-0.5,0-0.9-0.1-1.4c-0.1-0.4-0.2-0.8-0.4-1.1
	c-0.2-0.3-0.5-0.6-0.8-0.7c-0.4-0.2-0.8-0.3-1.2-0.3s-0.8,0.1-1.1,0.2c-0.3,0.2-0.6,0.4-0.8,0.7c-0.2,0.3-0.4,0.7-0.5,1.1
	c-0.1,0.5-0.2,1-0.2,1.5s0,0.9,0.1,1.4c0.1,0.4,0.2,0.8,0.4,1.1c0.2,0.3,0.5,0.6,0.8,0.7c0.4,0.2,0.8,0.3,1.2,0.3
	c0.4,0,0.8-0.1,1.1-0.2c0.3-0.2,0.6-0.4,0.8-0.7c0.2-0.3,0.4-0.7,0.5-1.1C131.4,24.3,131.5,23.8,131.5,23.3L131.5,23.3z"/>
<path fill="#F4F4F4" d="M144.6,26.8c0,0.2,0,0.4,0,0.5s0,0.2,0,0.3c0,0.1,0,0.2-0.1,0.2c0,0.1-0.1,0.2-0.2,0.2
	c-0.1,0.1-0.3,0.2-0.5,0.3c-0.2,0.1-0.5,0.3-0.8,0.3c-0.3,0.1-0.6,0.2-0.9,0.2c-0.3,0.1-0.7,0.1-1,0.1c-0.7,0-1.4-0.1-2.1-0.4
	c-0.6-0.2-1.1-0.6-1.6-1.1c-0.4-0.5-0.8-1.1-0.9-1.8c-0.2-0.8-0.3-1.6-0.3-2.4c0-0.9,0.1-1.8,0.4-2.7c0.2-0.7,0.6-1.3,1.1-1.9
	c0.5-0.5,1-0.9,1.6-1.1c0.7-0.2,1.4-0.4,2.1-0.4c0.3,0,0.6,0,0.9,0.1c0.3,0.1,0.6,0.1,0.8,0.2s0.5,0.2,0.7,0.3
	c0.2,0.1,0.3,0.2,0.4,0.3c0.1,0.1,0.1,0.1,0.2,0.2c0,0.1,0.1,0.1,0.1,0.2s0,0.2,0,0.3c0,0.1,0,0.3,0,0.5c0,0.3,0,0.6-0.1,0.9
	c0,0.1-0.2,0.3-0.3,0.3c-0.2,0-0.3-0.1-0.4-0.2c-0.1-0.1-0.3-0.2-0.5-0.4c-0.2-0.1-0.5-0.3-0.7-0.4c-0.3-0.1-0.7-0.2-1-0.2
	c-0.7,0-1.4,0.3-1.7,0.9c-0.4,0.6-0.6,1.4-0.6,2.6c0,0.5,0,1,0.1,1.5c0.1,0.4,0.2,0.7,0.4,1.1c0.2,0.3,0.4,0.5,0.7,0.6
	s0.7,0.2,1,0.2c0.4,0,0.7-0.1,1-0.2s0.5-0.2,0.8-0.4c0.2-0.1,0.4-0.3,0.5-0.4s0.2-0.2,0.4-0.2c0.1,0,0.1,0,0.2,0.1
	c0.1,0.1,0.1,0.1,0.1,0.2s0.1,0.3,0.1,0.4C144.6,26.3,144.6,26.6,144.6,26.8z"/>
<path fill="#F4F4F4" d="M156.3,28.5c0,0.1,0,0.1-0.1,0.2s-0.1,0.1-0.2,0.1c-0.1,0-0.3,0.1-0.5,0.1s-0.4,0-0.8,0s-0.6,0-0.8,0
	s-0.3,0-0.5-0.1c-0.1,0-0.2-0.1-0.3-0.1c-0.1-0.1-0.1-0.2-0.2-0.2l-3.4-5.5v5.5c0,0.1,0,0.1-0.1,0.2s-0.1,0.1-0.2,0.1
	c-0.1,0-0.3,0.1-0.4,0.1c-0.2,0-0.4,0-0.7,0s-0.5,0-0.7,0s-0.3,0-0.4-0.1c-0.1,0-0.2-0.1-0.2-0.1c0-0.1-0.1-0.1-0.1-0.2V13.2
	c0-0.1,0-0.1,0.1-0.2c0.1-0.1,0.1-0.1,0.2-0.2c0.1,0,0.3-0.1,0.4-0.1c0.5,0,0.9,0,1.4,0c0.2,0,0.3,0,0.4,0.1c0.1,0,0.2,0.1,0.2,0.2
	c0,0.1,0.1,0.1,0.1,0.2v9.1l3.1-4.1c0.1-0.1,0.1-0.2,0.2-0.2c0.1-0.1,0.2-0.1,0.3-0.2c0.2,0,0.3-0.1,0.5-0.1s0.4,0,0.7,0
	s0.5,0,0.7,0s0.3,0,0.5,0.1c0.1,0,0.2,0.1,0.2,0.1c0,0.1,0.1,0.1,0.1,0.2s0,0.3-0.1,0.4s-0.2,0.3-0.3,0.4l-3,3.4l3.5,5.4
	c0.1,0.1,0.1,0.3,0.2,0.4C156.2,28.3,156.3,28.4,156.3,28.5z"/>
<path fill="#F4F4F4" d="M165.1,25.5c0,0.5-0.1,1.1-0.3,1.6c-0.2,0.4-0.5,0.8-0.9,1.1c-0.4,0.3-0.9,0.5-1.4,0.7
	c-0.6,0.2-1.2,0.2-1.8,0.2c-0.4,0-0.7,0-1.1-0.1c-0.3-0.1-0.6-0.1-0.9-0.2c-0.2-0.1-0.5-0.2-0.7-0.3c-0.1-0.1-0.3-0.2-0.4-0.3
	c-0.1-0.1-0.2-0.2-0.2-0.4c-0.1-0.3-0.1-0.5-0.1-0.8c0-0.2,0-0.4,0-0.5s0-0.2,0.1-0.3c0-0.1,0.1-0.1,0.1-0.2c0.1,0,0.1,0,0.2,0
	c0.1,0,0.3,0.1,0.4,0.1c0.2,0.1,0.4,0.2,0.6,0.3c0.3,0.1,0.6,0.2,0.9,0.3c0.4,0.1,0.7,0.2,1.1,0.1c0.2,0,0.5,0,0.7-0.1
	c0.2,0,0.4-0.1,0.5-0.2s0.3-0.2,0.3-0.4c0.1-0.2,0.1-0.3,0.1-0.5s-0.1-0.4-0.2-0.6c-0.2-0.2-0.4-0.3-0.6-0.4
	c-0.3-0.1-0.5-0.3-0.8-0.4s-0.6-0.2-0.9-0.4c-0.3-0.1-0.6-0.3-0.9-0.5c-0.3-0.2-0.6-0.4-0.8-0.6c-0.2-0.3-0.4-0.6-0.6-0.9
	c-0.2-0.4-0.2-0.8-0.2-1.3s0.1-0.9,0.3-1.4c0.2-0.4,0.5-0.8,0.8-1.1c0.4-0.3,0.8-0.5,1.3-0.7c0.6-0.2,1.2-0.3,1.8-0.2
	c0.3,0,0.6,0,0.9,0.1c0.3,0,0.6,0.1,0.8,0.2s0.4,0.1,0.6,0.2c0.1,0.1,0.3,0.1,0.4,0.2c0.1,0,0.1,0.1,0.2,0.2c0,0.1,0.1,0.1,0.1,0.2
	s0,0.2,0,0.3c0,0.1,0,0.3,0,0.4s0,0.4,0,0.5s0,0.2-0.1,0.3c0,0.1-0.1,0.1-0.1,0.2c0,0-0.1,0-0.2,0c-0.1,0-0.2-0.1-0.3-0.1
	c-0.2-0.1-0.4-0.2-0.6-0.3c-0.2-0.1-0.5-0.2-0.8-0.3c-0.3-0.1-0.7-0.1-1-0.1c-0.2,0-0.5,0-0.7,0.1c-0.2,0-0.3,0.1-0.5,0.2
	c-0.1,0.1-0.2,0.2-0.3,0.4c-0.1,0.1-0.1,0.3-0.1,0.4c0,0.2,0.1,0.4,0.2,0.6c0.2,0.2,0.4,0.3,0.6,0.4c0.3,0.1,0.5,0.3,0.8,0.4
	s0.6,0.2,0.9,0.4c0.3,0.1,0.6,0.3,0.9,0.4c0.3,0.2,0.6,0.4,0.8,0.6c0.2,0.3,0.4,0.6,0.6,0.9C165,24.7,165.1,25.1,165.1,25.5z"/>
</svg>
