<?xml version="1.0" encoding="utf-8"?>
<!-- Generator: Adobe Illustrator 19.2.1, SVG Export Plug-In . SVG Version: 6.00 Build 0)  -->
<svg version="1.1" id="Layer_1" xmlns="http://www.w3.org/2000/svg" xmlns:xlink="http://www.w3.org/1999/xlink" x="0px" y="0px"
	 viewBox="0 0 165 30.9" enable-background="new 0 0 165 30.9" xml:space="preserve">
<title>GS_Logo</title>
<g>
	<g id="primary">
		<g id="rev">
			<g id="icon_shadow">
				<g id="icon">
					<path fill="#158FCF" d="M15.9,0L1.5,1.2C1.3,1.2,1,1.3,0.8,1.4S0.4,1.7,0.3,1.9S0.1,2.3,0,2.5C0,2.8,0,3,0,3.3l1,4.2L1.3,9
						c0.1-0.1,0.2-0.2,0.3-0.3C1.7,8.5,2,8.3,2.2,8.3c0.1,0,0.3-0.1,0.4-0.1l14.8-2c0.2,0,0.3-0.1,0.5-0.2c0.1-0.1,0.3-0.2,0.3-0.4
						c0.1-0.2,0.1-0.3,0.2-0.5c0-0.2,0-0.4,0-0.6L18,2.7l-0.3-1.2c0-0.2-0.1-0.4-0.3-0.6c-0.1-0.2-0.2-0.4-0.4-0.5
						c-0.2-0.1-0.3-0.2-0.5-0.3C16.3,0,16.1,0,15.9,0"/>
					<path fill="#158FCF" d="M20.5,16.2l-0.1-3.6L29,5.1l-2.2,12.2L24,18.8l-0.1-4.3L20.5,16.2 M30.3,1.9L18.6,3.2l0.2,1.1
						c0.1,0.3,0.1,0.6,0,0.8c0,0.2-0.1,0.5-0.2,0.7s-0.3,0.4-0.5,0.5s-0.4,0.2-0.7,0.3l-13.1,2L2.8,8.8C2.6,8.8,2.4,8.9,2.3,9
						C2.1,9.1,2,9.2,1.9,9.4C1.8,9.5,1.7,9.7,1.6,9.9c0,0.2-0.1,0.4,0,0.6L2,12.6l3.6,16.9c0.1,0.3,0.2,0.5,0.3,0.7
						c0.1,0.2,0.3,0.4,0.5,0.5s0.4,0.2,0.6,0.2s0.5,0,0.7-0.1l2.6-0.8l9.3-16.4l0.1,4.1l3.5-1.8l0.1,4.4l3.3-1.9l-6,11.9l4.4-5
						l9.5-3.1c0.1,0,0.3-0.1,0.4-0.2c0.1-0.1,0.2-0.3,0.3-0.4c0.1-0.2,0.1-0.3,0.1-0.5s0-0.4,0-0.6l-3.6-17c0-0.2-0.1-0.4-0.2-0.6
						c-0.1-0.2-0.2-0.3-0.3-0.4C31,2.2,30.9,2.1,30.7,2C30.6,2,30.4,1.9,30.3,1.9"/>
					<polyline fill="#FFFFFF" points="28.2,6.5 25.6,8.8 27.5,10.4 28.2,6.5 					"/>
				</g>
			</g>
			<g id="text">
				<g id="Graphic">
					<path id="G" fill="#F4F4F4" d="M46.9,6.6c3.6,0,5.4,1.9,5.4,1.9l-1.6,2c-1.1-0.8-2.4-1.3-3.8-1.3c-2.6,0-4.7,2-4.7,5
						c0,3.2,2.2,5.2,4.8,5.2c1.4,0,2.7-0.6,3.7-1.5v-1.1c0-0.2-0.1-0.4-0.4-0.5h-0.1h-0.9V14h2.4c1,0,1.4,0.4,1.4,1.4v6.3h-2.3V21
						c0-0.3,0-0.6,0-0.6l0,0c-1.2,1-2.8,1.6-4.3,1.6c-3.9,0-7.2-3-7.2-7.7c-0.1-4.1,3.2-7.5,7.2-7.6C46.7,6.6,46.8,6.6,46.9,6.6z"/>
					<path id="r" fill="#F4F4F4" d="M55.6,13.7c0-0.2-0.1-0.4-0.4-0.5h-0.1h-0.8V11h2.4c0.9,0,1.4,0.4,1.4,1.3v0.6
						c0,0.2,0,0.4,0,0.7h0.1c0.5-1.5,1.7-2.7,3.4-2.7c0.2,0,0.3,0,0.5,0v2.6c-0.2,0-0.4,0-0.6,0c-1.4,0-2.5,0.9-2.9,2.2
						c-0.2,0.6-0.2,1.1-0.2,1.7v4.2h-2.6v-7.9H55.6z"/>
					<path id="a" fill="#F4F4F4" d="M68.7,14.9H69v-0.1c0-1.5-0.6-2.1-2-2.1c-0.5,0-1.4,0.1-1.4,0.7V14h-2.5v-1.2
						c0-2,2.8-2.2,3.9-2.2c3.5,0,4.6,1.9,4.6,4.2v4c0,0.2,0.1,0.4,0.4,0.5h0.1H73v2.2h-2.4c-1,0-1.4-0.5-1.4-1.2c0-0.3,0-0.5,0-0.5
						l0,0c-0.6,1.2-1.9,1.9-3.2,1.9c-1.9,0-3.6-1.2-3.6-3.3C62.4,15.2,67,14.9,68.7,14.9z M66.7,19.8c1.4,0,2.4-1.5,2.4-2.8v-0.3
						h-0.5c-1.4,0-3.6,0.2-3.6,1.7C65.1,19.1,65.6,19.8,66.7,19.8z"/>
					<path id="p" fill="#F4F4F4" d="M74.6,13.7c0-0.2-0.1-0.4-0.4-0.5h-0.1h-0.8V11h2.4c1,0,1.3,0.4,1.3,1v0.4l0,0
						c0,0,0.9-1.7,3.4-1.7c2.9,0,4.7,2.3,4.7,5.6c0,3.4-2.1,5.6-4.9,5.6c-1.2,0-2.3-0.5-3-1.4l0,0c0,0,0,0.4,0,0.9v4.4h-2.6V13.7
						L74.6,13.7z M79.8,19.6c1.5,0,2.7-1.2,2.7-3.3c0-2-1.1-3.3-2.6-3.3c-1.4,0-2.7,1-2.7,3.3C77.1,18,78,19.6,79.8,19.6z"/>
					<path id="h" fill="#F4F4F4" d="M86.6,9.5c0-0.2-0.1-0.4-0.4-0.5h-0.1h-0.8V6.8h2.5c1,0,1.4,0.4,1.4,1.4v3.7c0,0.5,0,0.9,0,0.9
						l0,0c0.7-1.3,2.1-2.1,3.6-2.1c2.4,0,3.7,1.2,3.7,4v4.1c0,0.2,0.1,0.4,0.4,0.5H97h0.8v2.2h-2.5c-1,0-1.4-0.4-1.4-1.4v-4.9
						c0-1.3-0.4-2.2-1.7-2.2c-1.4,0-2.5,0.9-2.9,2.2c-0.1,0.4-0.2,0.9-0.2,1.4v4.9h-2.6L86.6,9.5L86.6,9.5z"/>
					<path id="i" fill="#F4F4F4" d="M99.6,13.7c0-0.2-0.1-0.4-0.4-0.5h-0.1h-0.8V11h2.5c1,0,1.4,0.4,1.4,1.4v6.5
						c0,0.2,0.1,0.4,0.4,0.5h0.1h0.8v2.2H101c-1,0-1.4-0.4-1.4-1.4V13.7z M99.7,6.8h2.3v2.4h-2.3V6.8z"/>
					<path id="c" fill="#F4F4F4" d="M109.9,10.7c1.4,0,3.8,0.6,3.8,2.4v1.2h-2.3v-0.6c0-0.6-0.9-0.8-1.5-0.8c-1.8,0-3.1,1.4-3.1,3.3
						c0,2.2,1.6,3.3,3.3,3.3c1.8,0,3.1-1.4,3.1-1.4l1.1,1.8c-1.2,1.2-2.8,1.9-4.5,1.9c-3.5,0-5.7-2.5-5.7-5.6
						C104.1,13.3,106.3,10.7,109.9,10.7z"/>
				</g>
				<g id="Stock">
					<path id="S" fill="#F4F4F4" d="M116.4,18.2c0,0,1.5,1.8,3.7,1.8c1.4,0,2.5-0.8,2.5-2.2c0-3.1-7.1-2.6-7.1-7.2
						c0-2.2,1.9-3.9,4.7-3.9c1.6,0,4.2,0.7,4.2,2.7v1.2h-1.9V9.9c0-0.8-1.1-1.3-2.3-1.3c-1.6,0-2.6,0.9-2.6,2c0,3,7.1,2.3,7.1,7.1
						c0,2.2-1.7,4.2-4.7,4.2c-1.9,0-3.6-0.8-4.9-2.2L116.4,18.2z"/>
					<path id="t" fill="#F4F4F4" d="M126.7,12.7h-1.4v-1.6h1.4V8.2h2v2.9h2.5v1.6h-2.5v4.8c0,2.1,1.5,2.4,2.2,2.4c0.2,0,0.3,0,0.5,0
						v1.8c-0.2,0-0.5,0-0.7,0c-1.3,0-4-0.4-4-3.9V12.7L126.7,12.7z"/>
					<path id="o" fill="#F4F4F4" d="M137.7,10.8c3.1,0,5.7,2.3,5.7,5.5s-2.5,5.5-5.7,5.5s-5.7-2.4-5.7-5.6S134.6,10.8,137.7,10.8z
						 M137.7,20.1c2.1,0.1,3.8-1.5,3.9-3.6c0.1-2.1-1.5-3.8-3.6-3.9c-2.1-0.1-3.8,1.5-3.9,3.6c0,0.1,0,0.1,0,0.2
						C134,18.3,135.6,20,137.7,20.1C137.6,20.1,137.7,20.1,137.7,20.1L137.7,20.1z"/>
					<path id="c-2" fill="#F4F4F4" d="M150.2,10.8c1.3,0,3.8,0.5,3.8,2.3v1.1h-1.8v-0.6c0-0.7-1.2-1.1-2-1.1c-2.1,0-3.6,1.5-3.6,3.8
						c-0.1,2,1.4,3.7,3.4,3.7c0.1,0,0.2,0,0.3,0c1.2,0,2.4-0.6,3.3-1.5l0.9,1.4c-1.1,1.2-2.7,1.8-4.3,1.8c-3.3,0-5.6-2.4-5.6-5.5
						C144.5,13.2,146.8,10.8,150.2,10.8z"/>
					<path id="k" fill="#F4F4F4" d="M156,9.1c0-0.2-0.1-0.4-0.4-0.5h-0.1h-0.9V6.9h2c0.9,0,1.3,0.3,1.3,1.2v6.8h0.9
						c0.4,0,0.8-0.1,1.1-0.5l2.4-3.4h2.3l-2.6,4c-0.2,0.3-0.5,0.6-0.8,0.8l0,0c0.3,0.2,0.6,0.5,0.7,0.8l1.6,2.9
						c0.2,0.3,0.4,0.4,0.9,0.4h0.6v1.7h-1.5c-1,0-1.3-0.2-1.7-1l-1.9-3.5c-0.2-0.3-0.6-0.5-1-0.4H158v5h-2V9.1L156,9.1z"/>
				</g>
			</g>
		</g>
	</g>
</g>
</svg>
