<?xml version="1.0" encoding="utf-8"?>
<!-- Generator: Adobe Illustrator 19.2.1, SVG Export Plug-In . SVG Version: 6.00 Build 0)  -->
<svg version="1.1" id="Layer_1" xmlns="http://www.w3.org/2000/svg" xmlns:xlink="http://www.w3.org/1999/xlink" x="0px" y="0px"
	 viewBox="0 0 165 26.8" enable-background="new 0 0 165 26.8" xml:space="preserve">
<title>Videoblocks_Logo</title>
<g>
	<path fill="#F4F4F4" d="M54.9,5.8l-2.7-1.6c-0.5-0.3-0.7-0.1-0.7,0.4v3.1c0,0.7,0.3,0.7,0.8,0.5l2.6-1.5
		C55.3,6.4,55.4,6.1,54.9,5.8z M50.5,9C50.4,9,50.2,9,50,8.9c-0.2,0-0.5,0-0.8,0c-0.3,0-0.6,0-0.8,0c-0.2,0-0.4,0-0.5,0.1
		c-0.1,0-0.2,0.1-0.3,0.2c-0.1,0.1-0.1,0.2-0.1,0.3l-2.8,9.1l-0.1,0.3l-0.1-0.3l-2.8-9.1c0-0.1-0.1-0.2-0.1-0.3
		c-0.1-0.1-0.2-0.2-0.3-0.2C41,9,40.9,9,40.7,9c-0.2,0-0.5,0-0.9,0c-0.3,0-0.6,0-0.9,0c-0.2,0-0.4,0-0.5,0.1c-0.1,0-0.2,0.1-0.3,0.2
		C38.1,9.3,38,9.4,38,9.5c0,0.1,0,0.1,0,0.2c0,0.1,0,0.2,0.1,0.3c0,0.1,0.1,0.3,0.1,0.5l3.7,11.2c0,0.1,0.1,0.3,0.2,0.4
		c0.1,0.1,0.2,0.2,0.4,0.2c0.2,0.1,0.5,0.1,0.7,0.1c0.3,0,0.7,0,1.2,0c0.5,0,0.9,0,1.2,0c0.2,0,0.5,0,0.7-0.1c0.1,0,0.3-0.1,0.4-0.2
		c0.1-0.1,0.1-0.2,0.2-0.4l3.7-11.2c0-0.1,0.1-0.2,0.1-0.3c0-0.1,0-0.2,0.1-0.3c0-0.1,0-0.2,0-0.2c0-0.1,0-0.1,0-0.2
		c0-0.1,0-0.2-0.1-0.2C50.7,9.1,50.6,9.1,50.5,9z M54.6,9.1C54.5,9,54.3,9,54.1,9c-0.3,0-0.6,0-0.8,0c-0.3,0-0.6,0-0.8,0
		c-0.2,0-0.4,0.1-0.5,0.1c-0.1,0-0.2,0.1-0.3,0.2c-0.1,0.1-0.1,0.2-0.1,0.2v12.3c0,0.1,0,0.2,0.1,0.2c0.1,0.1,0.2,0.1,0.3,0.2
		c0.2,0.1,0.4,0.1,0.5,0.1c0.3,0,0.6,0,0.8,0c0.3,0,0.6,0,0.8,0c0.2,0,0.4,0,0.5-0.1c0.1,0,0.2-0.1,0.3-0.2C55,22,55,21.9,55,21.8
		V9.5c0-0.1,0-0.2-0.1-0.2C54.8,9.2,54.7,9.1,54.6,9.1L54.6,9.1z M96,12.6c-0.2-0.8-0.6-1.5-1.2-2.1c-0.6-0.6-1.2-1-2-1.3
		c-0.9-0.3-1.9-0.5-2.9-0.5c-1,0-2,0.2-3,0.5c-0.8,0.3-1.5,0.8-2.1,1.4c-0.6,0.6-1,1.4-1.3,2.2c-0.3,0.9-0.4,1.9-0.4,2.9
		c0,1,0.1,2,0.4,2.9c0.2,0.8,0.6,1.5,1.2,2.1c0.6,0.6,1.3,1.1,2,1.3c0.9,0.3,1.9,0.5,2.9,0.5c1,0,2-0.1,3-0.5
		c0.8-0.3,1.5-0.8,2.1-1.5c0.6-0.6,1-1.4,1.3-2.2c0.3-0.9,0.4-1.9,0.4-2.9C96.4,14.5,96.2,13.6,96,12.6z M92.6,17.4
		c-0.1,0.5-0.3,0.9-0.6,1.3c-0.2,0.4-0.6,0.6-1,0.8c-0.4,0.2-0.9,0.3-1.4,0.3c-0.5,0-1-0.1-1.4-0.3c-0.4-0.2-0.7-0.5-0.9-0.9
		c-0.2-0.4-0.4-0.9-0.5-1.3c-0.1-0.6-0.2-1.1-0.2-1.7c0-0.6,0.1-1.2,0.2-1.8c0.1-0.5,0.3-0.9,0.6-1.3c0.2-0.4,0.6-0.6,1-0.8
		c0.4-0.2,0.9-0.3,1.4-0.3c0.5,0,1,0.1,1.4,0.3c0.4,0.2,0.7,0.5,0.9,0.9c0.2,0.4,0.4,0.9,0.5,1.3c0.1,0.6,0.2,1.1,0.1,1.7
		C92.8,16.3,92.7,16.8,92.6,17.4L92.6,17.4z M68.5,6c-0.2-0.1-0.3-0.1-0.5-0.1c-0.6,0-1.1,0-1.7,0c-0.2,0-0.4,0.1-0.5,0.1
		c-0.1,0-0.2,0.1-0.3,0.2c0,0.1-0.1,0.2-0.1,0.3v3.9c-0.5-0.5-1.1-0.9-1.7-1.2c-0.6-0.3-1.2-0.4-1.9-0.4c-0.8,0-1.6,0.2-2.3,0.5
		c-0.7,0.3-1.3,0.8-1.7,1.4c-0.5,0.7-0.8,1.4-1,2.2c-0.2,1-0.4,2-0.4,3c0,0.9,0.1,1.7,0.3,2.6c0.2,0.8,0.5,1.5,0.9,2.2
		c0.4,0.6,1,1.1,1.6,1.5c0.7,0.4,1.6,0.6,2.4,0.5c0.8,0,1.6-0.2,2.3-0.6c0.8-0.4,1.4-1,2-1.6v1.4c0,0.1,0,0.2,0.1,0.3
		c0.1,0.1,0.2,0.1,0.2,0.2c0.1,0.1,0.3,0.1,0.5,0.1c0.2,0,0.5,0,0.7,0c0.2,0,0.5,0,0.7,0c0.2,0,0.3,0,0.4-0.1c0.1,0,0.2-0.1,0.2-0.2
		c0.1-0.1,0.1-0.2,0.1-0.3V6.4c0-0.1,0-0.2-0.1-0.3C68.7,6.1,68.6,6,68.5,6L68.5,6z M65.4,17.7c-0.3,0.3-0.5,0.6-0.8,0.9
		c-0.2,0.2-0.5,0.4-0.7,0.6c-0.2,0.1-0.4,0.3-0.7,0.3c-0.2,0.1-0.5,0.1-0.7,0.1c-0.4,0-0.8-0.1-1.2-0.3c-0.3-0.2-0.6-0.6-0.8-0.9
		c-0.2-0.4-0.3-0.9-0.4-1.3c-0.1-0.5-0.1-1-0.1-1.5c0-0.5,0-1,0.1-1.4c0.1-0.4,0.2-0.9,0.4-1.3c0.2-0.4,0.5-0.7,0.8-0.9
		c0.3-0.2,0.8-0.3,1.2-0.3c0.5,0,1,0.2,1.4,0.5c0.5,0.4,1,0.9,1.4,1.4L65.4,17.7L65.4,17.7z M81,10.4c-0.5-0.6-1.1-1-1.8-1.3
		c-0.8-0.3-1.7-0.5-2.7-0.5c-0.9,0-1.8,0.2-2.6,0.5c-0.8,0.3-1.4,0.8-2,1.4c-0.6,0.7-1,1.4-1.2,2.2c-0.3,1-0.4,2-0.4,3
		c0,1,0.1,2,0.4,3c0.2,0.8,0.7,1.5,1.2,2.1c0.6,0.6,1.3,1,2.1,1.3c0.9,0.3,1.9,0.4,2.9,0.4c0.6,0,1.2,0,1.7-0.1
		c0.5-0.1,1-0.2,1.4-0.3c0.4-0.1,0.7-0.2,1-0.3c0.2-0.1,0.3-0.1,0.5-0.3c0.1-0.1,0.1-0.1,0.1-0.2c0-0.1,0.1-0.2,0.1-0.3
		c0-0.1,0-0.2,0-0.4c0-0.1,0-0.3,0-0.5c0-0.2,0-0.4,0-0.6c0-0.1,0-0.2-0.1-0.4c0-0.1-0.1-0.1-0.1-0.2c-0.1,0-0.1,0-0.2,0
		c-0.2,0-0.4,0.1-0.5,0.1c-0.2,0.1-0.5,0.2-0.8,0.3c-0.4,0.1-0.8,0.2-1.2,0.3c-0.5,0.1-1.1,0.1-1.6,0.1c-0.5,0-1-0.1-1.5-0.2
		c-0.4-0.1-0.8-0.4-1.1-0.7c-0.3-0.3-0.5-0.7-0.6-1.1c-0.1-0.5-0.2-0.9-0.2-1.4h7.5c0.3,0,0.6-0.1,0.8-0.3c0.2-0.3,0.3-0.6,0.3-0.9
		v-0.6c0-0.8-0.1-1.6-0.3-2.4C81.8,11.6,81.5,11,81,10.4L81,10.4z M73.8,14.3c0-0.4,0.1-0.8,0.2-1.2c0.1-0.4,0.3-0.7,0.5-1
		c0.2-0.3,0.5-0.5,0.8-0.7c0.4-0.2,0.7-0.2,1.1-0.2c0.9,0,1.5,0.3,1.9,0.8s0.6,1.3,0.6,2.3L73.8,14.3L73.8,14.3z"/>
	<path fill="#F4F4F4" d="M110.4,10.7c-0.4-0.6-0.9-1.1-1.6-1.5c-0.7-0.4-1.5-0.6-2.3-0.6c-0.4,0-0.7,0-1.1,0.1
		c-0.3,0.1-0.7,0.2-1,0.3c-0.3,0.1-0.6,0.3-0.9,0.5c-0.3,0.2-0.7,0.5-0.9,0.8V6.4c0-0.1,0-0.2-0.1-0.3c-0.1-0.1-0.2-0.2-0.3-0.2
		c-0.2-0.1-0.4-0.1-0.5-0.1c-0.3,0-0.6,0-0.8,0c-0.3,0-0.6,0-0.8,0c-0.2,0-0.4,0.1-0.5,0.1c-0.1,0-0.2,0.1-0.3,0.2
		c-0.1,0.1-0.1,0.2-0.1,0.3v15.5c0,0.1,0,0.2,0.1,0.3c0.1,0.1,0.1,0.1,0.2,0.2c0.1,0.1,0.3,0.1,0.5,0.1c0.5,0,0.9,0,1.4,0
		c0.2,0,0.3,0,0.5-0.1c0.1,0,0.2-0.1,0.3-0.2c0.1-0.1,0.1-0.2,0.1-0.3v-1.3c0.3,0.3,0.6,0.7,1,1c0.3,0.3,0.6,0.5,1,0.7
		c0.3,0.2,0.7,0.3,1,0.4c0.4,0.1,0.8,0.1,1.2,0.1c0.8,0,1.6-0.2,2.3-0.5c0.7-0.3,1.2-0.8,1.7-1.4c0.5-0.7,0.8-1.4,1-2.2
		c0.3-1,0.4-2,0.4-3c0-0.9-0.1-1.8-0.3-2.6C111.1,12.1,110.8,11.4,110.4,10.7z M107.8,17.2c-0.1,0.4-0.2,0.9-0.4,1.3
		c-0.2,0.4-0.5,0.7-0.8,0.9c-0.3,0.2-0.7,0.4-1.1,0.3c-0.5,0-1-0.2-1.4-0.5c-0.5-0.4-1-0.9-1.4-1.4v-4.1c0.2-0.3,0.5-0.6,0.8-0.9
		c0.2-0.2,0.5-0.4,0.7-0.6c0.2-0.1,0.4-0.3,0.7-0.3c0.2-0.1,0.5-0.1,0.7-0.1c0.4,0,0.8,0.1,1.2,0.3c0.3,0.2,0.6,0.5,0.8,0.9
		c0.2,0.4,0.3,0.8,0.4,1.3c0.1,0.5,0.1,1,0.1,1.5C107.9,16.2,107.9,16.7,107.8,17.2L107.8,17.2z M116.1,5.9
		c-0.2-0.1-0.4-0.1-0.5-0.1c-0.6-0.1-1.1-0.1-1.7,0c-0.2,0-0.4,0.1-0.5,0.1c-0.1,0-0.2,0.1-0.3,0.2C113,6.2,113,6.3,113,6.4v15.5
		c0,0.1,0,0.2,0.1,0.2c0.1,0.1,0.2,0.1,0.3,0.2c0.2,0.1,0.4,0.1,0.5,0.1c0.6,0.1,1.1,0.1,1.7,0c0.2,0,0.4,0,0.5-0.1
		c0.1,0,0.2-0.1,0.3-0.2c0.1-0.1,0.1-0.2,0.1-0.2V6.4c0-0.1,0-0.2-0.1-0.3C116.3,6,116.2,6,116.1,5.9L116.1,5.9z M129.5,10.5
		c-0.6-0.6-1.2-1.1-2-1.3c-0.9-0.3-1.9-0.5-2.9-0.4c-1,0-2,0.2-3,0.5c-0.8,0.3-1.5,0.8-2.1,1.4c-0.6,0.6-1,1.4-1.3,2.2
		c-0.3,0.9-0.4,1.9-0.4,2.9c0,1,0.1,2,0.4,2.9c0.2,0.8,0.6,1.5,1.2,2.2c0.6,0.6,1.3,1.1,2,1.3c0.9,0.3,1.9,0.5,2.9,0.5
		c1,0,2-0.2,3-0.5c0.8-0.3,1.5-0.8,2.1-1.5c0.6-0.6,1-1.4,1.3-2.2c0.3-0.9,0.4-1.9,0.4-2.9c0-1-0.1-2-0.4-2.9
		C130.4,11.8,130,11.1,129.5,10.5z M127.3,17.4c-0.1,0.5-0.3,0.9-0.6,1.3c-0.2,0.4-0.6,0.6-1,0.8c-0.4,0.2-0.9,0.3-1.4,0.3
		c-0.5,0-1-0.1-1.4-0.3c-0.4-0.2-0.7-0.5-0.9-0.9c-0.2-0.4-0.4-0.9-0.5-1.3c-0.1-0.6-0.2-1.1-0.2-1.7c0-0.6,0.1-1.2,0.2-1.8
		c0.1-0.5,0.3-0.9,0.6-1.3c0.2-0.4,0.6-0.6,1-0.8c0.4-0.2,0.9-0.3,1.4-0.3c0.5,0,1,0.1,1.4,0.3c0.4,0.2,0.7,0.5,0.9,0.9
		c0.2,0.4,0.4,0.9,0.5,1.3c0.1,0.6,0.2,1.1,0.1,1.7C127.5,16.3,127.4,16.9,127.3,17.4L127.3,17.4z M141.7,18.6
		c0-0.1-0.1-0.2-0.1-0.3c-0.1,0-0.1-0.1-0.2-0.1c-0.2,0-0.3,0.1-0.4,0.2c-0.2,0.1-0.4,0.3-0.7,0.5c-0.3,0.2-0.6,0.3-0.9,0.5
		c-0.4,0.1-0.8,0.2-1.2,0.2c-0.4,0-0.8-0.1-1.2-0.3c-0.4-0.2-0.7-0.4-0.9-0.8c-0.3-0.4-0.4-0.8-0.5-1.3c-0.1-0.6-0.2-1.2-0.2-1.8
		c0-1.3,0.2-2.4,0.7-3.1c0.5-0.7,1.3-1.1,2.1-1c0.4,0,0.8,0.1,1.2,0.2c0.3,0.1,0.6,0.3,0.9,0.4c0.2,0.2,0.4,0.3,0.6,0.4
		c0.1,0.1,0.3,0.2,0.5,0.2c0.1,0,0.3-0.1,0.4-0.3c0.1-0.4,0.2-0.7,0.1-1.1c0-0.2,0-0.4,0-0.6c0-0.1,0-0.3-0.1-0.4
		c0-0.1,0-0.2-0.1-0.3c-0.1-0.1-0.1-0.2-0.2-0.3c-0.2-0.1-0.3-0.3-0.5-0.4c-0.6-0.3-1.2-0.5-1.8-0.6c-0.4-0.1-0.7-0.1-1.1-0.1
		c-0.8,0-1.7,0.1-2.5,0.4c-0.7,0.3-1.4,0.7-2,1.3c-0.6,0.6-1,1.4-1.3,2.2c-0.3,1-0.5,2.1-0.5,3.2c0,1,0.1,1.9,0.4,2.9
		c0.2,0.8,0.6,1.5,1.1,2.1c0.5,0.6,1.1,1,1.9,1.3c0.8,0.3,1.7,0.5,2.5,0.4c0.4,0,0.8,0,1.2-0.1c0.4-0.1,0.8-0.2,1.1-0.3
		c0.3-0.1,0.6-0.2,0.9-0.4c0.2-0.1,0.4-0.2,0.6-0.4c0.1-0.1,0.2-0.2,0.2-0.3c0-0.1,0.1-0.2,0.1-0.3c0-0.1,0-0.2,0.1-0.4s0-0.4,0-0.6
		c0-0.3,0-0.6,0-0.7C141.7,18.9,141.7,18.8,141.7,18.6L141.7,18.6z M154.1,21l-4.2-6.5l3.6-4.1c0.1-0.2,0.2-0.3,0.3-0.5
		c0.1-0.1,0.1-0.3,0.1-0.4c0-0.1,0-0.2-0.1-0.3c-0.1-0.1-0.2-0.1-0.3-0.2C153.4,9,153.2,9,153,9c-0.2,0-0.5,0-0.9,0
		c-0.3,0-0.6,0-0.9,0c-0.2,0-0.4,0.1-0.6,0.1c-0.1,0-0.3,0.1-0.4,0.2c-0.1,0.1-0.2,0.2-0.3,0.3l-3.7,4.9V6.4c0-0.1,0-0.2-0.1-0.3
		c-0.1-0.1-0.2-0.2-0.3-0.2c-0.2-0.1-0.4-0.1-0.5-0.1c-0.3,0-0.6,0-0.8,0c-0.3,0-0.6,0-0.8,0c-0.2,0-0.4,0.1-0.5,0.1
		c-0.1,0-0.2,0.1-0.3,0.2c-0.1,0.1-0.1,0.2-0.1,0.3v15.5c0,0.1,0,0.2,0.1,0.2c0.1,0.1,0.2,0.1,0.3,0.2c0.2,0.1,0.4,0.1,0.5,0.1
		c0.3,0,0.6,0,0.8,0c0.3,0,0.6,0,0.8,0c0.2,0,0.4,0,0.5-0.1c0.1,0,0.2-0.1,0.3-0.2c0.1-0.1,0.1-0.2,0.1-0.2v-6.5l4.1,6.5
		c0.1,0.1,0.1,0.2,0.2,0.3c0.1,0.1,0.2,0.1,0.4,0.2c0.2,0,0.4,0.1,0.6,0.1c0.2,0,0.5,0,0.9,0c0.3,0,0.6,0,0.9,0c0.2,0,0.4,0,0.5-0.1
		c0.1,0,0.2-0.1,0.3-0.2c0-0.1,0.1-0.2,0.1-0.2c0-0.1,0-0.2-0.1-0.4C154.3,21.3,154.2,21.2,154.1,21L154.1,21z M164.8,16.9
		c-0.2-0.4-0.4-0.8-0.7-1.1c-0.3-0.3-0.6-0.5-1-0.7c-0.4-0.2-0.7-0.4-1.1-0.5c-0.4-0.2-0.7-0.3-1.1-0.4c-0.3-0.1-0.7-0.3-1-0.4
		c-0.3-0.1-0.5-0.3-0.7-0.5c-0.2-0.2-0.3-0.5-0.3-0.7c0-0.2,0-0.4,0.1-0.5c0.1-0.2,0.2-0.3,0.3-0.4c0.2-0.1,0.4-0.2,0.6-0.3
		c0.3-0.1,0.5-0.1,0.8-0.1c0.4,0,0.8,0,1.2,0.1c0.3,0.1,0.6,0.2,0.9,0.3c0.3,0.1,0.5,0.2,0.7,0.3c0.1,0.1,0.2,0.1,0.4,0.1
		c0.1,0,0.1,0,0.2,0c0.1,0,0.1-0.1,0.1-0.2c0-0.1,0.1-0.2,0.1-0.4c0-0.2,0-0.4,0-0.6c0-0.2,0-0.4,0-0.5c0-0.1,0-0.3,0-0.4
		c0-0.1,0-0.2-0.1-0.2c0-0.1-0.1-0.1-0.2-0.2c-0.1-0.1-0.3-0.2-0.4-0.2c-0.2-0.1-0.5-0.2-0.7-0.3c-0.3-0.1-0.7-0.2-1-0.2
		c-0.4-0.1-0.8-0.1-1.1-0.1c-0.7,0-1.4,0.1-2.1,0.3c-0.6,0.2-1.1,0.4-1.6,0.8c-0.4,0.3-0.8,0.8-1,1.3c-0.2,0.5-0.4,1.1-0.3,1.6
		c0,0.5,0.1,1,0.3,1.5c0.2,0.4,0.4,0.8,0.7,1.1c0.3,0.3,0.6,0.5,1,0.7c0.4,0.2,0.7,0.4,1.1,0.5c0.4,0.2,0.7,0.3,1.1,0.4
		c0.3,0.1,0.6,0.3,1,0.4c0.3,0.1,0.5,0.3,0.7,0.5c0.2,0.2,0.3,0.5,0.3,0.7c0,0.2,0,0.4-0.1,0.6c-0.1,0.2-0.2,0.3-0.4,0.5
		c-0.2,0.1-0.4,0.2-0.6,0.3c-0.3,0.1-0.6,0.1-0.8,0.1c-0.5,0-0.9-0.1-1.3-0.2c-0.4-0.1-0.7-0.2-1-0.4c-0.3-0.1-0.5-0.3-0.7-0.4
		c-0.1-0.1-0.3-0.2-0.4-0.2c-0.2,0-0.3,0.1-0.3,0.2c0,0.1-0.1,0.3-0.1,0.4c0,0.2,0,0.4,0,0.6c0,0.3,0,0.6,0.1,0.9
		c0,0.2,0.1,0.3,0.2,0.5c0.1,0.1,0.3,0.2,0.5,0.3c0.3,0.1,0.5,0.2,0.8,0.3c1.5,0.5,3.1,0.5,4.6,0.1c0.6-0.2,1.2-0.4,1.7-0.8
		c0.5-0.4,0.9-0.8,1.1-1.3c0.3-0.6,0.4-1.2,0.4-1.9C165,17.8,164.9,17.3,164.8,16.9L164.8,16.9z"/>
</g>
<path fill="#ED1C24" d="M13.5,0H1.9C0.8,0,0,0.9,0,1.9c0,0,0,0,0,0v11.5c0,1.1,0.8,1.9,1.9,2c0,0,0,0,0,0h11.6
	c1.1,0,1.9-0.9,1.9-1.9c0,0,0,0,0,0V1.9C15.4,0.9,14.5,0,13.5,0C13.5,0,13.5,0,13.5,0z M10.9,8.6l-5.5,3.2c-0.9,0.6-1.6,0.5-1.6-1
	V4.3c0-1.1,0.5-1.4,1.5-0.8l5.6,3.4C11.9,7.5,11.8,8.1,10.9,8.6L10.9,8.6z"/>
<path fill="#ED1C24" d="M27.9,3.6h-8.8c-0.8,0-1.5,0.7-1.4,1.5v8.8c0,0.8,0.6,1.5,1.4,1.5h8.9c0.8,0,1.5-0.7,1.5-1.5c0,0,0,0,0,0
	V5.1C29.4,4.3,28.8,3.6,27.9,3.6C27.9,3.6,27.9,3.6,27.9,3.6z M25.9,10.2l-4.2,2.5c-0.7,0.4-1.2,0.3-1.2-0.7v-5
	c0-0.8,0.4-1.1,1.1-0.6l4.3,2.6C26.8,9.4,26.6,9.8,25.9,10.2L25.9,10.2z"/>
<path fill="#ED1C24" d="M25.6,17.7h-6.9c-0.6,0-1.1,0.5-1.1,1.2c0,0,0,0,0,0v6.8c0,0.6,0.5,1.2,1.1,1.2c0,0,0,0,0,0h6.9
	c0.6,0,1.1-0.5,1.1-1.2v-6.8C26.8,18.2,26.3,17.7,25.6,17.7C25.6,17.7,25.6,17.7,25.6,17.7z M24.1,22.8l-3.3,1.9
	c-0.5,0.3-0.9,0.3-1-0.6v-3.9c0-0.7,0.3-0.8,0.9-0.5l3.3,2C24.7,22.1,24.6,22.5,24.1,22.8z"/>
<path fill="#ED1C24" d="M14.4,17.7H9.5c-0.4,0-0.8,0.4-0.8,0.8v4.9c0,0.4,0.4,0.8,0.8,0.8h4.9c0.4,0,0.8-0.4,0.8-0.8v-4.9
	C15.2,18,14.9,17.7,14.4,17.7z M13.3,21.3L11,22.7c-0.4,0.2-0.7,0.2-0.7-0.4v-2.8c0-0.5,0.2-0.6,0.6-0.4l2.4,1.4
	C13.8,20.9,13.7,21.1,13.3,21.3z"/>
</svg>
